# xmcd CD database file
#
# Track frame offsets:
#	150
#	14522
#	34572
#	55927
#	71520
#	91547
#	110345
#	127040
#	143670
#	161380
#
# Disc length: 2594 seconds
#
# Revision: 0
# Processed by: cddbd v1.5PL3 Copyright (c) Steve Scherf et al.
# Submitted via: CDex 1.40Release
#
DISCID=780a200a
DTITLE=Atami - Doppler
DYEAR=2002
DGENRE=JPop
TTITLE0=Sometime Silly
TTITLE1=Doppler
TTITLE2=Under The Sun -Album Ver.-
TTITLE3=Sanbika
TTITLE4=エレファントラブ
TTITLE5=The End Of The World
TTITLE6=Don't Say Bye Bye
TTITLE7=Frog
TTITLE8=Busy Bee Box
TTITLE9=EL Dorado
EXTD=YEAR: 2002
EXTT0=
EXTT1=
EXTT2=
EXTT3=
EXTT4=
EXTT5=
EXTT6=
EXTT7=
EXTT8=
EXTT9=
PLAYORDER=
